<svg xmlns="http://www.w3.org/2000/svg" width="279.035" height="43.594" viewBox="0 0 279.035 43.594">
  <g id="logo" transform="translate(0 0)">
    <g id="组_142" data-name="组 142" transform="translate(0 1.515)">
      <path id="路径_1" data-name="路径 1" d="M267.154,9.905h.122l7.679,20.637h-15.58Zm13.6,36.162h3.078L268.721,5.66h-1.978L251.219,46.067h2.267L258.664,32.4h16.981Zm-83.314,0V8.216h.111L211.39,46H213.6L227.559,8.272h.111V46.056h2.912V5.949h-4.067L213.09,41.822h-.056L199.71,5.949h-4.3V46.067ZM151.113,5.949V46.067h23.6V44.211H154.025V26.063h14.013V24.208H154.025V7.8h19.014V5.949Zm-99.628,0h-2.9V46.067H72.422V44.211H51.486ZM4.8,5.949V46.067H7.712V26.352H21.669V24.5H7.712V7.8H28.059V5.949Z" transform="translate(-4.8 -5.66)" fill="#fff"/>
    </g>
    <g id="组_148" data-name="组 148" transform="translate(84.483 0)">
      <g id="组_143" data-name="组 143" transform="translate(1.683 3.119)">
        <path id="路径_2" data-name="路径 2" d="M95.733,47.579c-2.686,0-3.507-1.259-3.937-1.918-.061-.092-.112-.173-.161-.233l-.247-.294A37.718,37.718,0,0,0,88.4,41.818a4.183,4.183,0,0,1-.987-2.346,4.517,4.517,0,0,0-.233-.871c-.061-.106-.217-.333-.428-.647a22.89,22.89,0,0,1-2.847-5.071,10.079,10.079,0,0,1,.274-4.217,8.888,8.888,0,0,0,.263-1.83,11.717,11.717,0,0,0-1.291-3.373,4.205,4.205,0,0,1-.321-4.522c1.239-2.835,1.926-4.337,2.775-4.863.77-.476,3.236-1.759,3.341-1.814l.04-.018A3.629,3.629,0,0,0,90.905,10.4c.138-.228.274-.456.428-.675a6.588,6.588,0,0,0,.41-.691c.32-.606.506-.877,1.9-1.525,1.711-.791,4.686-.233,6.463.1a9,9,0,0,0,1.247.192c.537-.018,2.255.559,5.918,2.016l.495.2a18.053,18.053,0,0,1,4.425,3.162,6.38,6.38,0,0,0,2.244,1.44c.378.173.768.352,1.125.56,1.24.722,2.632,1.889,2.817,3,.033.2.072.411.117.64a32.326,32.326,0,0,1,.56,4.591c.164,2.8.068,4.464-.92,6.33a15.2,15.2,0,0,0-1.486,4.171c-.248,1.146-.86,2.785-3.421,5.306-2.28,2.248-3.108,2.528-4.362,2.954-.211.073-.437.149-.687.241-.331.122-.6.207-.832.279-.941.294-1.294.4-3.392,2.472-1.9,1.863-2.21,1.929-3.778,2.008a24.991,24.991,0,0,0-2.767.273A11.082,11.082,0,0,1,95.733,47.579ZM89.238,12.865c-.236.122-2.564,1.339-3.278,1.78-.678.418-1.4,2.006-2.516,4.562a3.6,3.6,0,0,0,.2,3.8,11.823,11.823,0,0,1,1.466,3.775,8.819,8.819,0,0,1-.277,2.013,9.7,9.7,0,0,0-.284,3.907,23.029,23.029,0,0,0,2.756,4.874c.226.332.39.577.455.689a4.237,4.237,0,0,1,.308,1.066,3.968,3.968,0,0,0,.746,1.957A33.554,33.554,0,0,1,91.9,44.706l.246.293a3.018,3.018,0,0,1,.209.3c.465.712,1.332,2.045,4.957,1.484a25.238,25.238,0,0,1,2.833-.28c1.427-.072,1.576-.08,3.345-1.818,2.213-2.18,2.637-2.313,3.661-2.633.224-.07.482-.15.8-.267.254-.094.486-.173.7-.247,1.208-.411,1.937-.659,4.108-2.8,2.435-2.4,3.008-3.916,3.236-4.971a15.893,15.893,0,0,1,1.549-4.345c.92-1.734,1-3.245.843-5.975a31.579,31.579,0,0,0-.55-4.507c-.044-.234-.086-.449-.119-.653-.139-.829-1.352-1.87-2.494-2.536-.329-.191-.688-.356-1.067-.529a6.9,6.9,0,0,1-2.467-1.6,17.365,17.365,0,0,0-4.166-2.983l-.5-.2c-3.332-1.327-5.218-2-5.64-1.969a9.5,9.5,0,0,1-1.4-.2c-1.7-.319-4.542-.851-6.061-.15-1.249.58-1.337.745-1.595,1.232a7.155,7.155,0,0,1-.451.759c-.146.208-.274.423-.4.639A4.286,4.286,0,0,1,89.238,12.865Z" transform="translate(-82.337 -7.103)" fill="#fff"/>
      </g>
      <g id="组_144" data-name="组 144" transform="translate(3.24 4.487)">
        <path id="路径_3" data-name="路径 3" d="M98.359,35.711a7.714,7.714,0,0,1-2.324-.431c-.134-.042-.258-.08-.37-.112-1.242-.337-4.815-2.82-6.12-4.124a3.891,3.891,0,0,1-1-1.644,7.2,7.2,0,0,0-1.994-2.967c-2.17-2.225-2.428-3.091-2.617-3.723a3.076,3.076,0,0,0-.122-.358,1.4,1.4,0,0,1,.067-1.077,6.619,6.619,0,0,1,3.722-3.158A3.629,3.629,0,0,0,89.831,14.3l-.039-.273.058-.021c.023-.244.07-.791.168-2.008.178-2.2,2.028-3.385,5.66-3.606,3.291-.2,4.679.111,5.915,1.338a13.016,13.016,0,0,0,3.572,2.73c.428.192,1.019.382,1.644.583a11.4,11.4,0,0,1,3.213,1.381c1.284,1,1.184,2.583.876,5.523l-.058.547c-.258,2.477-.286,2.736-.653,3.539a6.24,6.24,0,0,1-.964,1.295,15.872,15.872,0,0,0-2.619,4.05,6.083,6.083,0,0,1-1.271,2.215l-.069.066a5.126,5.126,0,0,1-.71.532,29.5,29.5,0,0,0-2.976,2.281A4.79,4.79,0,0,1,98.359,35.711ZM90.49,14.2a4.353,4.353,0,0,1-2.629,4.527,5.965,5.965,0,0,0-3.358,2.79.83.83,0,0,0-.078.559,3.431,3.431,0,0,1,.153.437c.169.566.4,1.341,2.456,3.448a7.865,7.865,0,0,1,2.143,3.2,3.252,3.252,0,0,0,.841,1.4,23.177,23.177,0,0,0,5.824,3.952c.12.033.25.074.391.118a4.629,4.629,0,0,0,4.907-.676,30.54,30.54,0,0,1,3.037-2.328,4.9,4.9,0,0,0,.613-.451l.077-.074c.219-.211.408-.393,1.126-2.006a16.515,16.515,0,0,1,2.728-4.22,6.913,6.913,0,0,0,.857-1.13c.323-.7.343-.9.6-3.332l.058-.548c.312-2.979.339-4.176-.622-4.926a10.968,10.968,0,0,0-3.007-1.274,17.771,17.771,0,0,1-1.714-.61,13.625,13.625,0,0,1-3.767-2.865c-1.072-1.065-2.332-1.334-5.405-1.146-3.287.2-4.886,1.151-5.035,2.994-.1,1.236-.148,1.844-.2,2.155Z" transform="translate(-83.737 -8.335)" fill="#fff"/>
      </g>
      <g id="组_145" data-name="组 145" transform="translate(0)">
        <path id="路径_4" data-name="路径 4" d="M100.289,44.631a2.346,2.346,0,0,1-1.416-.357,14.293,14.293,0,0,1-1.546-1.567c-1.2-1.329-2.846-3.138-4.07-3.031a5.736,5.736,0,0,1-4.007-1.758A5.968,5.968,0,0,1,87.289,33.3a4.756,4.756,0,0,0-3.12-4.583,2.435,2.435,0,0,1-.431-.247,2.714,2.714,0,0,0-.291-.169,4.261,4.261,0,0,1-2.624-3.832c0-2.522,0-7.768,3-8.469.379-.089.756-.174,1.125-.257,2.1-.472,4.083-.918,4.652-1.726a4.473,4.473,0,0,0,.377-.681c.384-.8.781-1.631,3.176-2.191l2.863-.667a7.488,7.488,0,0,0,2.313-3.348c.883-2.486,2.307-2.773,3.3-2.773.091,0,.257-.007.481-.016,2.983-.114,6.506-.09,7.327,1.161a15.822,15.822,0,0,1,.93,1.816c.777,1.667,1.744,3.742,3.038,4.352A13.392,13.392,0,0,1,118.664,17c.137.3.314.609.5.943.837,1.48,1.984,3.506.808,6.231-1.372,3.194-1.727,3.631-3.874,5.585a4.7,4.7,0,0,0-1.5,3.876,4.347,4.347,0,0,1-.08,1,3.775,3.775,0,0,0-.076.443c-.138,1.022-.369,2.732-3.907,5.342C107.506,42.654,102.848,44.631,100.289,44.631Zm-6.92-5.626c1.508,0,3.136,1.8,4.453,3.256a14.362,14.362,0,0,0,1.459,1.485c1.154.885,6.841-.9,10.861-3.864,3.312-2.443,3.511-3.917,3.643-4.894a4.463,4.463,0,0,1,.092-.527,3.933,3.933,0,0,0,.058-.832,5.338,5.338,0,0,1,1.719-4.362c2.084-1.9,2.358-2.213,3.709-5.358,1.045-2.42.036-4.2-.776-5.638-.2-.351-.385-.681-.529-.992a12.808,12.808,0,0,0-4.941-5.006c-1.514-.713-2.536-2.909-3.358-4.673a15.456,15.456,0,0,0-.883-1.733c-.477-.728-2.747-1.018-6.743-.86-.236.009-.411.016-.507.016-.551,0-1.844,0-2.672,2.329a7.892,7.892,0,0,1-2.609,3.708l-.113.05-2.93.682c-2.083.488-2.366,1.08-2.726,1.83a4.955,4.955,0,0,1-.433.778c-.717,1.017-2.725,1.468-5.05,1.991-.368.082-.742.168-1.12.256-2.483.581-2.483,5.654-2.483,7.82a3.615,3.615,0,0,0,2.274,3.244,2.57,2.57,0,0,1,.406.248,2.656,2.656,0,0,0,.3.16,5.423,5.423,0,0,1,3.486,5.211,5.382,5.382,0,0,0,1.755,4.106,5.079,5.079,0,0,0,3.484,1.576C93.252,39.007,93.311,39.005,93.369,39.005Z" transform="translate(-80.822 -4.297)" fill="#fff"/>
      </g>
      <g id="组_146" data-name="组 146" transform="translate(0.422 1.771)">
        <path id="路径_5" data-name="路径 5" d="M102.379,39.424c-1.956,0-5.311-.236-7.1-1.156a13.919,13.919,0,0,0-5.146-1.206h-.008l-2.73-.122a1.686,1.686,0,0,1-1.415-.746c-.873-1.332-.049-4,.872-6.429.561-1.481-1.429-2.649-3.7-3.813-2.426-1.245-2.362-1.728-1.038-5.749,1.3-3.955,2.847-4.615,5.184-5.614l.292-.126c1.875-.81,2.444-2.818,2.819-4.148.083-.291.157-.551.232-.759.386-1.072,2.134-2.1,3.964-3.047l.233-.122c1.044-.549,7.083-1.089,8.4,1a9.167,9.167,0,0,0,3.439,2.847c.388.224.752.435,1.071.647,1.264.85,5.1,4.647,5.616,8.731.47,3.717.439,5.581-.987,6.8a5.713,5.713,0,0,0-2.244,3.622,6.116,6.116,0,0,1-1.06,3.537,14.654,14.654,0,0,0-1.889,3.295,4.213,4.213,0,0,1-3.431,2.5A11.488,11.488,0,0,1,102.379,39.424ZM90.151,36.4a14.345,14.345,0,0,1,5.431,1.278c2.206,1.135,7.309,1.147,8.076,1.029a3.534,3.534,0,0,0,2.923-2.11,15.207,15.207,0,0,1,1.959-3.418A5.493,5.493,0,0,0,109.471,30a6.277,6.277,0,0,1,2.478-4.1c1.094-.935,1.256-2.27.757-6.21-.46-3.645-3.948-7.336-5.325-8.26-.307-.2-.659-.407-1.034-.623a9.857,9.857,0,0,1-3.671-3.068c-1.061-1.681-6.654-1.224-7.528-.765l-.236.122c-.986.511-3.294,1.707-3.645,2.682-.07.2-.139.441-.217.716-.387,1.362-1.032,3.643-3.2,4.579l-.3.127c-2.247.961-3.6,1.54-4.811,5.209-1.291,3.922-1.255,3.941.707,4.947,1.927.988,4.839,2.482,4.02,4.643-.477,1.258-1.742,4.6-.938,5.828a1.042,1.042,0,0,0,.889.443Z" transform="translate(-81.202 -5.891)" fill="#fff"/>
      </g>
      <g id="组_147" data-name="组 147" transform="translate(1.455 2.058)">
        <path id="路径_6" data-name="路径 6" d="M95.707,44.476a4,4,0,0,1-1.067-.191,16.09,16.09,0,0,0-2.958-.529,5.285,5.285,0,0,1-4.446-2.877l-.007-.016-.862-2.4c-1.372-2.372-1.409-2.689-1.317-4.837l.008-.163c.09-2.1.047-2.435-1.389-4.092-2.056-2.375-2.048-4.48.023-6.434A4.388,4.388,0,0,0,85.3,20.06a1.661,1.661,0,0,1,.586-1.244,16.053,16.053,0,0,0,2.355-3.283c.3-4.609.642-5.265.835-5.41,6.083-5.83,11.933-3.534,11.99-3.511A29.2,29.2,0,0,1,105.245,9.7a3.229,3.229,0,0,0,1.3.562,5.674,5.674,0,0,1,2.888,1.588c1.359,1.462,3.031,1.148,5.793.628l.244-.046c2.966-.555,3.942,2.387,4.8,4.981.1.3.2.6.3.9.811,2.333-.439,3.345-1.76,4.415A13.62,13.62,0,0,0,117.4,24c-1.195,1.284-.987,2.517-.767,3.823a9.4,9.4,0,0,1,.174,1.554,3.568,3.568,0,0,1-.327,1.679,5.193,5.193,0,0,0-.423,2.129c-.118,2.447-.636,3-1.182,3.6l-.144.158a7.735,7.735,0,0,1-2.086,1.179,16.491,16.491,0,0,0-2.323,1.222,17.462,17.462,0,0,1-4.341,1.886l-.476.158a4.752,4.752,0,0,0-.99.489,5.8,5.8,0,0,1-3.137.912,9.387,9.387,0,0,0-3.714,1.084,6.542,6.542,0,0,1-1.406.55A2.6,2.6,0,0,1,95.707,44.476Zm-7.855-3.85a4.639,4.639,0,0,0,3.9,2.466,16.889,16.889,0,0,1,3.065.549,2.4,2.4,0,0,0,1.308.12,6.125,6.125,0,0,0,1.256-.5,9.933,9.933,0,0,1,3.964-1.147,5.1,5.1,0,0,0,2.829-.819,5.435,5.435,0,0,1,1.121-.549l.48-.159a16.977,16.977,0,0,0,4.164-1.8,16.628,16.628,0,0,1,2.427-1.282,8.38,8.38,0,0,0,1.871-1.021l.15-.164c.482-.52.9-.969,1.006-3.175a5.831,5.831,0,0,1,.477-2.36,2.925,2.925,0,0,0,.272-1.415,8.663,8.663,0,0,0-.166-1.441c-.226-1.344-.482-2.866.937-4.39a14.34,14.34,0,0,1,1.489-1.332c1.329-1.077,2.207-1.788,1.55-3.678-.1-.3-.2-.6-.306-.907-.853-2.563-1.657-4.985-4.05-4.535l-.243.046c-2.888.542-4.8.9-6.406-.829a5.041,5.041,0,0,0-2.583-1.4,3.748,3.748,0,0,1-1.571-.715A29.317,29.317,0,0,0,100.8,7.226c-.056-.024-5.593-2.066-11.275,3.391-.061.124-.362.922-.625,5.039l-.043.144a16.93,16.93,0,0,1-2.575,3.554c-.216.159-.254.362-.323.808a5.023,5.023,0,0,1-1.808,3.262c-1.808,1.706-1.8,3.406.023,5.513,1.55,1.791,1.648,2.286,1.55,4.556l-.007.163c-.088,2.027-.1,2.191,1.252,4.531Z" transform="translate(-82.132 -6.149)" fill="#fff"/>
      </g>
    </g>
  </g>
</svg>
